<svg xmlns="http://www.w3.org/2000/svg" viewBox="0 0 120 120" role="img" aria-labelledby="title desc">
  <title id="title">Maphunziro Board</title>
  <desc id="desc">Stylized open book and sun motif in brand colors for Maphunziro Board</desc>
  <defs>
    <linearGradient id="g" x1="0%" y1="0%" x2="100%" y2="100%">
      <stop offset="0%" style="stop-color:#0d6efd"/>
      <stop offset="100%" style="stop-color:#1a5f4a"/>
    </linearGradient>
  </defs>
  <rect width="120" height="120" rx="24" fill="url(#g)"/>
  <g fill="none" stroke="#fff" stroke-width="3" stroke-linecap="round" stroke-linejoin="round" opacity="0.95">
    <path d="M35 38h25c4 0 7 3 7 7v50H35c-4 0-7-3-7-7V45c0-4 3-7 7-7z"/>
    <path d="M60 38h25c4 0 7 3 7 7v50H60V45c0-4-3-7-7-7z"/>
  </g>
  <g fill="#ff6b35" opacity="0.9">
    <rect x="18" y="18" width="8" height="8" rx="1"/>
    <rect x="30" y="12" width="8" height="8" rx="1"/>
    <rect x="42" y="18" width="8" height="8" rx="1"/>
  </g>
  <text x="60" y="108" text-anchor="middle" fill="#fff" font-family="Segoe UI, system-ui, sans-serif" font-size="9" font-weight="600" letter-spacing="0.5px">MAPHUNZIRO</text>
</svg>
